<svg width="1149" height="385" viewBox="0 0 1149 385" fill="none" xmlns="http://www.w3.org/2000/svg">
<rect x="0.500488" y="0.757568" width="1147.75" height="383.857" rx="40" fill="#FFDD15"/>
<path d="M381.741 191.382L191.124 191.379L0.503206 191.379L191.121 382.002L381.741 191.382Z" fill="#00A9B5"/>
<path d="M1148.5 191.382L957.883 191.379L767.262 191.379L957.88 382.002L1148.5 191.382Z" fill="#E0743B"/>
<path d="M0.500488 191.382L191.118 191.385L381.738 191.385L191.121 0.761415L0.500488 191.382Z" fill="#3A089C"/>
<path d="M767.26 191.382L957.877 191.385L1148.5 191.385L957.88 0.761415L767.26 191.382Z" fill="#00A9B5"/>
<path d="M575.309 381.705L575.313 191.207L575.312 0.705328L384.808 191.204L575.309 381.705Z" fill="#00A9B5"/>
<path d="M191.474 0.757568L191.474 384.614L575.331 384.614C575.331 172.61 403.478 0.757578 191.474 0.757568Z" fill="#E70000"/>
<path d="M959.188 0.757568L575.331 0.757535L575.331 384.614C787.335 384.614 959.188 212.762 959.188 0.757568Z" fill="#3A089C"/>
</svg>
