<svg width="150" height="142" viewBox="0 0 150 142" fill="none" xmlns="http://www.w3.org/2000/svg">
<path d="M106.607 0L75.0287 31.5783L75.0261 54.4745L106.604 22.8962L106.607 0Z" fill="#3A089C"/>
<path d="M74.9742 54.5825L43.3959 86.1608L43.3933 109.057L74.9716 77.4787L74.9742 54.5825Z" fill="#3A089C"/>
<path d="M43.3409 0L11.7626 31.5783L11.76 54.4745L43.3383 22.8962L43.3409 0Z" fill="#3A089C"/>
<path d="M106.659 0L138.237 31.5783L138.24 54.4745L106.662 22.8962L106.659 0Z" fill="#E70000"/>
<path d="M75.0258 54.5825L106.604 86.1608L106.607 109.057L75.0284 77.4787L75.0258 54.5825Z" fill="#E70000"/>
<path d="M43.393 0L74.9713 31.5783L74.9739 54.4745L43.3956 22.8962L43.393 0Z" fill="#E70000"/>
<rect x="106.432" y="22.9495" width="45.0023" height="45.0023" transform="rotate(45 106.432 22.9495)" fill="#FF7410"/>
<rect x="74.7993" y="77.532" width="45.0023" height="45.0023" transform="rotate(45 74.7993 77.532)" fill="#00A9B5"/>
<rect x="43.166" y="22.9495" width="45.0023" height="45.0023" transform="rotate(45 43.166 22.9495)" fill="#FF7410"/>
</svg>
