<svg width="166" height="157" viewBox="0 0 166 157" fill="none" xmlns="http://www.w3.org/2000/svg">
<g clip-path="url(#clip0_1_144)">
<path d="M154.281 84.3747C154.281 124.488 121.704 157 81.531 157C41.358 157 8.77588 124.488 8.77588 84.3747C8.77588 44.2612 41.3484 11.7446 81.531 11.7446C121.714 11.7446 154.281 44.2564 154.281 84.3699V84.3747Z" fill="#E70000"/>
<path d="M41.0037 125.335C14.1914 104.984 8.22987 68.5159 28.774 41.9553C49.3181 15.3948 87.7132 10.362 114.526 30.7178C141.338 51.0688 155.628 96.0906 135.079 122.656C114.525 149.216 67.8064 145.695 41.0037 125.34V125.335Z" fill="#FF7410"/>
<path d="M129.908 67.4395C138.669 94.2297 123.937 123.005 97.0052 131.726C70.0779 140.438 41.7225 124.493 32.9672 97.7028C24.207 70.9126 35.3489 34.2245 62.2762 25.5129C89.2131 16.8013 121.148 40.6541 129.908 67.4395Z" fill="#3A089C"/>
<path d="M42.7818 58.0964C50.5403 36.9991 74.9326 26.4075 96.1189 34.2292C117.31 42.0558 124.723 65.0762 116.965 86.1783C109.206 107.276 86.5584 125.718 65.3674 117.886C44.1763 110.06 35.028 79.1985 42.7818 58.0916V58.0964Z" fill="#00A9B5"/>
<path d="M127.991 31.0335C146.053 23.1926 159.265 20.949 163.013 26.2065C170.139 36.2098 140.346 69.5636 96.4826 100.698C52.6197 131.827 11.2774 148.968 4.15625 138.964C0.763375 134.2 5.74246 124.139 16.6303 111.543" stroke="white" stroke-width="3" stroke-miterlimit="10"/>
<mask id="mask0_1_144" style="mask-type:luminance" maskUnits="userSpaceOnUse" x="0" y="-1" width="146" height="134">
<path d="M20.819 132.626C20.819 132.626 131.442 75.9168 145.392 37.1141C145.392 37.1141 115.244 -1.68858 80.362 0.0527852C45.4796 1.79415 12.102 25.1781 5.12459 60.0006C-1.85285 94.8183 1.13748 101.286 1.13748 101.286L20.819 132.626Z" fill="white"/>
</mask>
<g mask="url(#mask0_1_144)">
<path d="M154.282 84.3747C154.282 124.488 121.704 157 81.5314 157C41.3585 157 8.77637 124.488 8.77637 84.3747C8.77637 44.2612 41.3489 11.7446 81.5314 11.7446C121.714 11.7446 154.282 44.2564 154.282 84.3699V84.3747Z" fill="#E70000"/>
<path d="M41.0037 125.335C14.1914 104.984 8.22987 68.5159 28.774 41.9553C49.3181 15.3948 87.7132 10.3621 114.526 30.7178C141.338 51.0688 155.628 96.0907 135.079 122.656C114.525 149.217 67.8064 145.696 41.0037 125.34V125.335Z" fill="#FF7410"/>
<path d="M129.908 67.4395C138.669 94.2297 123.937 123.005 97.0052 131.726C70.0779 140.438 41.7225 124.493 32.9672 97.7028C24.207 70.9126 35.3489 34.2245 62.2762 25.5129C89.2131 16.8013 121.148 40.6541 129.908 67.4395Z" fill="#3A089C"/>
<path d="M42.7818 58.0964C50.5403 36.9991 74.9326 26.4075 96.1189 34.2292C117.31 42.0558 124.723 65.0762 116.965 86.1783C109.206 107.276 86.5584 125.718 65.3674 117.886C44.1763 110.06 35.028 79.1985 42.7818 58.0916V58.0964Z" fill="#00A9B5"/>
</g>
<path d="M150.951 64.172C157.962 64.172 163.645 58.4983 163.645 51.4993C163.645 44.5004 157.962 38.8266 150.951 38.8266C143.94 38.8266 138.256 44.5004 138.256 51.4993C138.256 58.4983 143.94 64.172 150.951 64.172Z" fill="white"/>
<path d="M75.1383 2.67902L75.1239 5.01838C75.0808 11.1562 72.7901 17.0692 68.6832 21.6379L55.658 36.1189L56.0366 41.2377C56.3002 44.7779 55.1069 48.2749 52.73 50.9157L49.7397 54.2405L49.0688 47.9114C48.7093 44.5243 45.9682 41.8788 42.5658 41.6396L38.1042 41.3238L37.3135 36.9274C36.7097 33.5738 33.7817 31.1388 30.3696 31.1436L23.9912 31.1579L26.9815 27.8331C29.3585 25.1923 32.7082 23.6328 36.264 23.5132L41.4012 23.3409L54.4264 8.8599C58.5381 4.29122 64.1785 1.38257 70.2886 0.67933L72.6128 0.411428C73.9642 0.258341 75.1479 1.3156 75.1383 2.67424V2.67902Z" fill="white"/>
<path d="M7.29072 130.593C10.5223 130.593 13.142 127.977 13.142 124.751C13.142 121.525 10.5223 118.91 7.29072 118.91C4.05915 118.91 1.43945 121.525 1.43945 124.751C1.43945 127.977 4.05915 130.593 7.29072 130.593Z" fill="white"/>
</g>
<defs>
<clipPath id="clip0_1_144">
<rect width="165" height="157" fill="white" transform="translate(0.5)"/>
</clipPath>
</defs>
</svg>
