<svg width="98" height="26" viewBox="0 0 98 26" fill="none" xmlns="http://www.w3.org/2000/svg">
<g clip-path="url(#clip0_128_8)">
<path d="M17.4189 0.916504V5.73671H5.3202V10.535H15.4558V15.3552H5.3202V25.0394H0.5V0.916504H17.4189Z" fill="white"/>
<path d="M20.2275 25.0438V0.916504H29.9118C31.6558 0.916504 33.2158 1.45987 34.6005 2.53784C36.2963 3.84368 37.1464 5.70603 37.1464 8.1249C37.1464 9.47456 36.8616 10.6708 36.292 11.705C38.4654 13.0108 39.5609 15.0528 39.5609 17.831C39.5609 20.2192 38.7108 22.0816 37.0106 23.4181C35.6741 24.5004 34.1141 25.0394 32.3262 25.0394H20.2275V25.0438ZM25.0521 10.5394H29.9161C31.5243 10.4956 32.3262 9.69365 32.3262 8.12928C32.3262 6.5649 31.52 5.74109 29.9161 5.74109H25.0521V10.5394ZM25.0521 20.2499H32.2605C33.9125 20.2017 34.7363 19.3998 34.7363 17.8398C34.7363 16.1878 33.9344 15.364 32.3262 15.364H25.0521V20.2543V20.2499Z" fill="white"/>
<path d="M83.2496 0.916504L76.085 12.9451L83.2496 25.0394H77.1893L73.114 17.831L69.0125 25.0394H62.9521L70.1123 12.9451L62.9521 0.916504H69.0125L73.114 8.1249L77.1893 0.916504H83.2496Z" fill="white"/>
<path d="M97.5001 0.916504L90.3355 12.9451L97.5001 25.0394H91.4398L87.3601 17.831L83.2629 25.0394H77.2026L91.4398 0.916504H97.5001Z" fill="white"/>
</g>
<path d="M52.9185 0.916504L52.9185 13L65.002 13C65.002 6.3263 59.5922 0.916504 52.9185 0.916504Z" fill="white"/>
<path d="M52.9185 25.0835L52.9185 13L40.8349 13C40.8349 19.6737 46.2447 25.0835 52.9185 25.0835Z" fill="white"/>
<path d="M52.9185 0.916504L52.9185 13L40.8349 13C40.8349 6.3263 46.2447 0.916504 52.9185 0.916504Z" fill="white"/>
<path d="M52.9185 25.0835L52.9185 13L65.002 13C65.002 19.6737 59.5922 25.0835 52.9185 25.0835Z" fill="white"/>
<path d="M46.1476 14.8268C44.2566 12.9358 44.2566 9.86988 46.1476 7.9789C48.0386 6.08791 51.1045 6.08791 52.9954 7.9789C54.8864 9.86988 54.8864 12.9358 52.9954 14.8268C51.1045 16.7178 48.0386 16.7178 46.1476 14.8268Z" fill="black"/>
<path d="M52.9962 14.7753C51.1052 12.8843 51.1052 9.81837 52.9962 7.92738C54.8872 6.0364 57.9531 6.0364 59.8441 7.92738C61.7351 9.81837 61.7351 12.8843 59.8441 14.7753C57.9531 16.6662 54.8872 16.6662 52.9962 14.7753Z" fill="black"/>
<path d="M52.9697 21.6489L52.9696 14.8012L52.9696 7.9533L59.8176 14.8011L52.9697 21.6489Z" fill="black"/>
<path d="M52.9697 7.95312L52.9698 14.8009L52.9698 21.6488L46.1219 14.801L52.9697 7.95312Z" fill="black"/>
<defs>
<clipPath id="clip0_128_8">
<rect width="97" height="24.1273" fill="white" transform="translate(0.5 0.916504)"/>
</clipPath>
</defs>
</svg>
