<svg width="307" height="217" viewBox="0 0 307 217" fill="none" xmlns="http://www.w3.org/2000/svg">
<path d="M306.773 159.199L257.249 159.2L207.724 159.2L257.248 109.674L306.773 159.199Z" fill="#E0743B"/>
<path d="M152.521 0.25L152.522 52.5146L152.522 104.78L100.256 52.5154L152.521 0.25Z" fill="#3A089C"/>
<path d="M97.3374 159.6L48.7833 159.599L0.228271 159.599L48.7825 208.155L97.3374 159.6Z" fill="#00A9B5"/>
<path d="M97.3253 159.905C82.104 144.683 82.104 120.005 97.3253 104.783C112.547 89.562 137.225 89.562 152.446 104.783C167.668 120.005 167.668 144.683 152.446 159.905C137.225 175.126 112.547 175.126 97.3253 159.905Z" fill="#00A9B5"/>
<path d="M152.446 159.49C137.225 144.269 137.225 119.591 152.446 104.369C167.668 89.1479 192.346 89.1479 207.568 104.369C222.789 119.591 222.789 144.269 207.568 159.49C192.346 174.712 167.668 174.712 152.446 159.49Z" fill="#FF7410"/>
<path d="M152.238 214.819L152.237 159.698L152.237 104.577L207.36 159.697L152.238 214.819Z" fill="#3A089C"/>
<path d="M152.238 104.577L152.239 159.697L152.239 214.818L97.1171 159.698L152.238 104.577Z" fill="#E70000"/>
<circle cx="224.558" cy="82.4652" r="10.5705" fill="black"/>
<circle cx="97.7112" cy="206.179" r="10.5705" fill="black"/>
</svg>
