<svg width="109" height="91" viewBox="0 0 109 91" fill="none" xmlns="http://www.w3.org/2000/svg">
<path d="M18.1346 54.6764C8.11914 44.6609 8.11915 28.4226 18.1346 18.4071C28.1501 8.39165 44.3884 8.39166 54.4039 18.4071C64.4193 28.4226 64.4193 44.6609 54.4039 54.6764C44.3884 64.6918 28.1501 64.6918 18.1346 54.6764Z" fill="#00A9B5"/>
<path d="M54.4042 54.4039C44.3887 44.3884 44.3887 28.1501 54.4042 18.1347C64.4196 8.11919 80.6579 8.1192 90.6734 18.1347C100.689 28.1501 100.689 44.3884 90.6734 54.4039C80.6579 64.4194 64.4196 64.4194 54.4042 54.4039Z" fill="#FF7410"/>
<path d="M54.2671 90.8093L54.2664 54.5407L54.2665 18.2714L90.5363 54.5401L54.2671 90.8093Z" fill="#3A089C"/>
<path d="M54.2671 18.271L54.2677 54.5396L54.2677 90.8089L17.9979 54.5402L54.2671 18.271Z" fill="#E70000"/>
</svg>
