<svg width="430" height="312" viewBox="0 0 430 312" fill="none" xmlns="http://www.w3.org/2000/svg">
<path d="M48.0322 143.707C21.6384 117.313 21.6384 74.5203 48.0322 48.1265C74.426 21.7327 117.219 21.7327 143.613 48.1265C170.007 74.5203 170.007 117.313 143.613 143.707C117.219 170.101 74.426 170.101 48.0322 143.707Z" fill="#00A9B5"/>
<path d="M286.387 144.379C259.993 117.986 259.993 75.1927 286.387 48.7989C312.781 22.405 355.574 22.405 381.968 48.7989C408.362 75.1927 408.362 117.986 381.968 144.379C355.574 170.773 312.781 170.773 286.387 144.379Z" fill="#FF7410"/>
<path d="M212.736 311.663L212.734 216.084L212.734 120.504L308.316 216.082L212.736 311.663Z" fill="#3A089C"/>
<path d="M212.736 120.503L212.738 216.082L212.738 311.662L117.155 216.083L212.736 120.503Z" fill="#E70000"/>
</svg>
