<svg width="416" height="371" viewBox="0 0 416 371" fill="none" xmlns="http://www.w3.org/2000/svg">
<path d="M47.992 143.751C21.5982 117.357 21.5982 74.5646 47.992 48.1708C74.3858 21.777 117.179 21.777 143.573 48.1708C169.966 74.5646 169.966 117.357 143.573 143.751C117.179 170.145 74.3858 170.145 47.992 143.751Z" fill="#00A9B5"/>
<path d="M272.428 143.829C246.034 117.435 246.034 74.6425 272.428 48.2487C298.821 21.8549 341.614 21.8549 368.008 48.2487C394.402 74.6425 394.402 117.435 368.008 143.829C341.614 170.223 298.821 170.223 272.428 143.829Z" fill="#FF7410"/>
<path d="M224.081 370.619L224.079 275.04L224.079 179.46L319.661 275.039L224.081 370.619Z" fill="#3A089C"/>
<path d="M210.341 108.375L210.343 203.954L210.342 299.535L114.76 203.956L210.341 108.375Z" fill="#E70000"/>
</svg>
