<svg width="241" height="241" viewBox="0 0 241 241" fill="none" xmlns="http://www.w3.org/2000/svg">
<path d="M24.5 72.4998L72.5001 72.4998L72.5001 24.4997C45.9896 24.4997 24.5 45.9893 24.5 72.4998Z" fill="#FFDD15"/>
<path d="M168.5 24.5L168.5 72.5001L216.5 72.5001C216.5 45.9897 195.01 24.5 168.5 24.5Z" fill="#FFDD15"/>
<path d="M216.5 168.5L168.5 168.5L168.5 216.5C195.01 216.5 216.5 195.011 216.5 168.5Z" fill="#FFDD15"/>
<path d="M72.5 216.5L72.5 168.5L24.4999 168.5C24.4999 195.01 45.9895 216.5 72.5 216.5Z" fill="#FFDD15"/>
<path d="M168.5 168.5L120.501 168.501L72.5005 168.501L120.5 120.5L168.5 168.5Z" fill="#FFDD15"/>
<path d="M72.5 72.4998L120.499 72.4989L168.499 72.4989L120.5 120.5L72.5 72.4998Z" fill="#FFDD15"/>
<path d="M72.5 168.5L72.4991 120.501L72.4991 72.5008L120.5 120.5L72.5 168.5Z" fill="#FFDD15"/>
<path d="M168.5 168.5L168.501 120.501L168.501 72.5008L120.5 120.5L168.5 168.5Z" fill="#FFDD15"/>
<rect x="168.5" y="72.4998" width="96.0001" height="48.0001" transform="rotate(-180 168.5 72.4998)" fill="#FFDD15"/>
<rect x="168.5" y="216.5" width="96.0001" height="48.0001" transform="rotate(-180 168.5 216.5)" fill="#FFDD15"/>
<rect x="216.5" y="72.4998" width="96.0001" height="48.0001" transform="rotate(90 216.5 72.4998)" fill="#FFDD15"/>
<rect x="72.5" y="72.4998" width="96.0001" height="48.0001" transform="rotate(90 72.5 72.4998)" fill="#FFDD15"/>
<path d="M168.5 24.5L168.5 48.4996L168.5 72.4997L144.5 48.5L168.5 24.5Z" fill="#FFDD15"/>
<path d="M168.5 168.5L168.5 192.5L168.5 216.5L144.5 192.5L168.5 168.5Z" fill="#FFDD15"/>
<path d="M168.5 72.4998L192.5 72.4993L216.5 72.4993L192.5 96.4998L168.5 72.4998Z" fill="#FFDD15"/>
<path d="M24.5 72.4998L48.4996 72.4993L72.4997 72.4993L48.5 96.4998L24.5 72.4998Z" fill="#FFDD15"/>
<path d="M120.5 24.5L120.5 48.4996L120.5 72.4997L96.5 48.5L120.5 24.5Z" fill="#FFDD15"/>
<path d="M120.5 168.5L120.5 192.5L120.5 216.5L96.5 192.5L120.5 168.5Z" fill="#FFDD15"/>
<path d="M168.5 120.5L192.5 120.5L216.5 120.5L192.5 144.5L168.5 120.5Z" fill="#FFDD15"/>
<path d="M24.5 120.5L48.4996 120.5L72.4997 120.5L48.5 144.5L24.5 120.5Z" fill="#FFDD15"/>
<path d="M120.5 24.5L120.5 48.4996L120.5 72.4997L144.5 48.5L120.5 24.5Z" fill="#FFDD15"/>
<path d="M120.5 168.5L120.5 192.5L120.5 216.5L144.5 192.5L120.5 168.5Z" fill="#FFDD15"/>
<path d="M168.5 120.5L192.5 120.5L216.5 120.5L192.5 96.5L168.5 120.5Z" fill="#FFDD15"/>
<path d="M24.5 120.5L48.4996 120.5L72.4997 120.5L48.5 96.5L24.5 120.5Z" fill="#FFDD15"/>
<path d="M120.5 72.4998L144.5 72.5002L168.5 72.5002L144.5 48.4997L120.5 72.4998Z" fill="#FFDD15"/>
<path d="M120.5 216.5L144.5 216.5L168.5 216.5L144.5 192.5L120.5 216.5Z" fill="#FFDD15"/>
<path d="M216.5 120.5L216.5 96.5004L216.5 72.5003L192.5 96.5L216.5 120.5Z" fill="#FFDD15"/>
<path d="M72.5 120.5L72.5004 96.5004L72.5004 72.5003L48.5 96.5L72.5 120.5Z" fill="#FFDD15"/>
<path d="M72.5 72.4998L96.4996 72.5002L120.5 72.5002L96.5 48.4997L72.5 72.4998Z" fill="#FFDD15"/>
<path d="M72.5 216.5L96.4996 216.5L120.5 216.5L96.5 192.5L72.5 216.5Z" fill="#FFDD15"/>
<path d="M216.5 168.5L216.5 144.501L216.5 120.501L192.5 144.5L216.5 168.5Z" fill="#FFDD15"/>
<path d="M72.5 168.5L72.5004 144.501L72.5004 120.501L48.5 144.5L72.5 168.5Z" fill="#FFDD15"/>
<path d="M168.5 24.5L144.5 24.4996L120.5 24.4996L144.5 48.5L168.5 24.5Z" fill="#FFDD15"/>
<path d="M168.5 168.5L144.5 168.5L120.5 168.5L144.5 192.5L168.5 168.5Z" fill="#FFDD15"/>
<path d="M168.5 72.4998L168.5 96.4994L168.5 120.499L192.5 96.4998L168.5 72.4998Z" fill="#FFDD15"/>
<path d="M24.5 72.4998L24.4996 96.4994L24.4996 120.499L48.5 96.4998L24.5 72.4998Z" fill="#FFDD15"/>
<path d="M120.5 24.5L96.5004 24.4996L72.5003 24.4996L96.5 48.5L120.5 24.5Z" fill="#FFDD15"/>
<path d="M120.5 168.5L96.5004 168.5L72.5003 168.5L96.5 192.5L120.5 168.5Z" fill="#FFDD15"/>
<path d="M168.5 120.5L168.5 144.5L168.5 168.5L192.5 144.5L168.5 120.5Z" fill="#FFDD15"/>
<path d="M24.5 120.5L24.4996 144.5L24.4996 168.5L48.5 144.5L24.5 120.5Z" fill="#FFDD15"/>
<path d="M72.5 24.5L72.4996 48.4996L72.4996 72.4997L96.5 48.5L72.5 24.5Z" fill="#FFDD15"/>
<path d="M72.5 168.5L72.4996 192.5L72.4996 216.5L96.5 192.5L72.5 168.5Z" fill="#FFDD15"/>
<path d="M168.5 168.5L192.5 168.501L216.5 168.501L192.5 144.5L168.5 168.5Z" fill="#FFDD15"/>
<path d="M24.5 168.5L48.4996 168.501L72.4997 168.501L48.5 144.5L24.5 168.5Z" fill="#FFDD15"/>
<path d="M120.499 56.5L120.499 120.499L184.499 120.499C184.499 85.1526 155.846 56.5 120.499 56.5Z" fill="black"/>
<path d="M120.499 184.499L120.499 120.499L56.4995 120.499C56.4995 155.846 85.1521 184.499 120.499 184.499Z" fill="black"/>
<path d="M120.499 56.5L120.499 120.499L56.4995 120.499C56.4995 85.1526 85.1521 56.5 120.499 56.5Z" fill="black"/>
<path d="M120.499 184.499L120.499 120.499L184.499 120.499C184.499 155.846 155.846 184.499 120.499 184.499Z" fill="black"/>
<path d="M84.6346 130.176C74.6191 120.161 74.6191 103.923 84.6346 93.9071C94.6501 83.8917 110.888 83.8917 120.904 93.9071C130.919 103.923 130.919 120.161 120.904 130.176C110.888 140.192 94.6501 140.192 84.6346 130.176Z" fill="#00A9B5"/>
<path d="M120.904 129.904C110.889 119.888 110.889 103.65 120.904 93.6347C130.92 83.6192 147.158 83.6192 157.173 93.6347C167.189 103.65 167.189 119.888 157.173 129.904C147.158 139.919 130.92 139.919 120.904 129.904Z" fill="#FF7410"/>
<path d="M120.767 166.309L120.766 130.041L120.766 93.7714L157.036 130.04L120.767 166.309Z" fill="#3A089C"/>
<path d="M120.767 93.771L120.767 130.04L120.767 166.309L84.4974 130.04L120.767 93.771Z" fill="#E70000"/>
<circle cx="10.5" cy="10.5" r="10.5" transform="matrix(-1 0 0 1 189.5 51.5)" fill="black"/>
<circle cx="10.5" cy="10.5" r="10.5" transform="matrix(-1 0 0 1 72.5 168.5)" fill="black"/>
</svg>
